<?xml version="1.0" encoding="UTF-8" standalone="no"?>
<svg
   xmlns:dc="http://purl.org/dc/elements/1.1/"
   xmlns:cc="http://creativecommons.org/ns#"
   xmlns:rdf="http://www.w3.org/1999/02/22-rdf-syntax-ns#"
   xmlns:svg="http://www.w3.org/2000/svg"
   xmlns="http://www.w3.org/2000/svg"
   xmlns:sodipodi="http://sodipodi.sourceforge.net/DTD/sodipodi-0.dtd"
   xmlns:inkscape="http://www.inkscape.org/namespaces/inkscape"
   version="1.1"
   id="svg2"
   xml:space="preserve"
   width="1224.7036"
   height="524.22516"
   viewBox="0 0 1224.7037 524.22517"
   sodipodi:docname="keyboardCase.svg"
   inkscape:version="1.0.2 (394de47547, 2021-03-26)"><metadata
     id="metadata8"><rdf:RDF><cc:Work
         rdf:about=""><dc:format>image/svg+xml</dc:format><dc:type
           rdf:resource="http://purl.org/dc/dcmitype/StillImage" /><dc:title /></cc:Work></rdf:RDF></metadata><defs
     id="defs6"><filter
       inkscape:collect="always"
       style="color-interpolation-filters:sRGB"
       id="filter2152"
       x="-1.3398613e-05"
       width="1.0000268"
       y="-3.3861488e-05"
       height="1.0000677"><feGaussianBlur
         inkscape:collect="always"
         stdDeviation="0.0066138232"
         id="feGaussianBlur2154" /></filter></defs><sodipodi:namedview
     pagecolor="#ffffff"
     bordercolor="#666666"
     borderopacity="1"
     objecttolerance="10"
     gridtolerance="10"
     guidetolerance="10"
     inkscape:pageopacity="0"
     inkscape:pageshadow="2"
     inkscape:window-width="1853"
     inkscape:window-height="1025"
     id="namedview4"
     showgrid="false"
     inkscape:zoom="0.84558611"
     inkscape:cx="476.0849"
     inkscape:cy="285.09107"
     inkscape:window-x="67"
     inkscape:window-y="27"
     inkscape:window-maximized="1"
     inkscape:current-layer="g10"
     inkscape:object-paths="true"
     inkscape:snap-smooth-nodes="false"
     inkscape:snap-object-midpoints="false"
     inkscape:snap-center="true"
     inkscape:snap-global="true"
     inkscape:snap-nodes="true"
     inkscape:object-nodes="true"
     inkscape:snap-others="true"
     inkscape:snap-intersection-paths="true"
     inkscape:document-rotation="0" /><g
     id="g10"
     inkscape:groupmode="layer"
     inkscape:label="keyboardPlates"
     transform="matrix(1.3333333,0,0,1.3333333,14.843041,7.4353872)"
     style="display:inline"><path
       d="m 522.043,97.517333 c 0,1.528 -1.234,2.765997 -2.762,2.765997 -1.527,0 -2.765,-1.237997 -2.765,-2.765997 0,-1.523 1.238,-2.761 2.765,-2.761 1.528,0 2.762,1.238 2.762,2.761 z"
       style="fill:none;stroke:#231f20;stroke-width:0.283465;stroke-linecap:round;stroke-linejoin:round;stroke-miterlimit:7.5;stroke-dasharray:none;stroke-opacity:1"
       id="path188"
       inkscape:export-xdpi="96"
       inkscape:export-ydpi="96" /><path
       d="m 630.043,137.83833 c 0,1.527 -1.234,2.765 -2.762,2.765 -1.527,0 -2.765,-1.238 -2.765,-2.765 0,-1.528 1.238,-2.762 2.765,-2.762 1.528,0 2.762,1.234 2.762,2.762 z"
       style="fill:none;stroke:#231f20;stroke-width:0.283465;stroke-linecap:round;stroke-linejoin:round;stroke-miterlimit:7.5;stroke-dasharray:none;stroke-opacity:1"
       id="path192"
       inkscape:export-xdpi="96"
       inkscape:export-ydpi="96" /><path
       d="m 612.406,26.959333 c 0,1.527 -1.238,2.761 -2.765,2.761 -1.528,0 -2.762,-1.234 -2.762,-2.761 0,-1.528 1.234,-2.762 2.762,-2.762 1.527,0 2.765,1.234 2.765,2.762 z"
       style="fill:none;stroke:#231f20;stroke-width:0.283465;stroke-linecap:round;stroke-linejoin:round;stroke-miterlimit:7.5;stroke-dasharray:none;stroke-opacity:1"
       id="path196"
       inkscape:export-xdpi="96"
       inkscape:export-ydpi="96" /><path
       d="m 522.043,260.24033 c 0,1.527 -1.234,2.758 -2.762,2.758 -1.527,0 -2.765,-1.231 -2.765,-2.758 0,-1.531 1.238,-2.762 2.765,-2.762 1.528,0 2.762,1.231 2.762,2.762 z"
       style="fill:none;stroke:#231f20;stroke-width:0.283465;stroke-linecap:round;stroke-linejoin:round;stroke-miterlimit:7.5;stroke-dasharray:none;stroke-opacity:1"
       id="path200"
       inkscape:export-xdpi="96"
       inkscape:export-ydpi="96" /><path
       d="m 631.484,238.63833 c 0,1.532 -1.238,2.762 -2.761,2.762 -1.528,0 -2.766,-1.23 -2.766,-2.762 0,-1.531 1.238,-2.761 2.766,-2.761 1.523,0 2.761,1.23 2.761,2.761 z"
       style="fill:none;stroke:#231f20;stroke-width:0.283465;stroke-linecap:round;stroke-linejoin:round;stroke-miterlimit:7.5;stroke-dasharray:none;stroke-opacity:1"
       id="path204"
       inkscape:export-xdpi="96"
       inkscape:export-ydpi="96" /><path
       d="m 775.125,259.51733 c 0,1.532 -1.238,2.762 -2.766,2.762 -1.523,0 -2.761,-1.23 -2.761,-2.762 0,-1.527 1.238,-2.757 2.761,-2.757 1.528,0 2.766,1.23 2.766,2.757 z"
       style="fill:none;stroke:#231f20;stroke-width:0.283465;stroke-linecap:round;stroke-linejoin:round;stroke-miterlimit:7.5;stroke-dasharray:none;stroke-opacity:1"
       id="path208"
       inkscape:export-xdpi="96"
       inkscape:export-ydpi="96" /><path
       d="m 792.043,90.318333 c 0,1.527 -1.238,2.766 -2.762,2.766 -1.527,0 -2.765,-1.239 -2.765,-2.766 0,-1.527 1.238,-2.766 2.765,-2.766 1.524,0 2.762,1.239 2.762,2.766 z"
       style="fill:none;stroke:#231f20;stroke-width:0.283465;stroke-linecap:round;stroke-linejoin:round;stroke-miterlimit:7.5;stroke-dasharray:none;stroke-opacity:1"
       id="path212"
       inkscape:export-xdpi="96"
       inkscape:export-ydpi="96" /><path
       d="m 855.734,252.19733 c 0,1.531 -1.234,2.77 -2.761,2.77 -1.528,0 -2.766,-1.239 -2.766,-2.77 0,-1.519 1.238,-2.758 2.766,-2.758 1.527,0 2.761,1.239 2.761,2.758 z"
       style="fill:none;stroke:#231f20;stroke-width:0.283465;stroke-linecap:round;stroke-linejoin:round;stroke-miterlimit:7.5;stroke-dasharray:none;stroke-opacity:1"
       id="path216"
       inkscape:export-xdpi="96"
       inkscape:export-ydpi="96" /><path
       id="path220-6"
       style="fill:none;stroke:#231f20;stroke-width:0.283465;stroke-linecap:round;stroke-linejoin:round;stroke-miterlimit:7.5;stroke-dasharray:none;stroke-opacity:1"
       d="m 782.42542,18.630352 c -2.13683,-0.160701 -4.29331,0.07903 -6.42333,-0.132067 C 774.3838,18.195738 772.824,17.560359 771.55438,16.496536 758.77806,9.0914407 748.75706,-4.0519424 734.53097,-4.6271078 l -107.16803,-0.807437 c -6.22013,0.07781 -12.34364,1.8548687 -18.47335,3.2022025 C 561.69165,8.3838271 514.48784,18.97523 467.29358,29.606879 c -7.52456,1.838172 -13.39311,8.848117 -13.93602,16.566275 -0.13199,3.867828 -0.0232,7.742683 -0.0587,11.613273 0.005,83.690043 -0.009,167.380313 0.007,251.070223 0.0603,6.01627 3.59839,11.83615 8.91964,14.64628 2.93179,1.65058 6.3477,2.20653 9.67911,2.06357 85.21274,0.004 170.42564,-0.008 255.63828,0.006 2.2492,0.2162 4.4569,0.93392 6.34488,2.18824 33.0807,19.07632 66.14631,38.17952 99.23645,57.23904 5.24723,2.87369 12.00642,2.66749 17.05555,-0.5473 2.85069,-1.71278 5.0038,-4.36788 6.5359,-7.28613 16.09966,-27.82333 32.22724,-55.63094 48.30946,-83.46409 3.86756,-7.1393 2.5957,-16.65557 -3.02499,-22.52106 -14.99339,-16.8983 -29.99857,-33.79067 -44.9846,-50.69268 -0.71373,-1.14615 -1.11988,-2.49257 -0.97066,-3.84883 -0.005,-49.2368 0.0147,-98.47384 -0.005,-147.710478 -0.1798,-5.029543 -1.6413,-9.992496 -4.00457,-14.423114 -1.72669,-2.927045 -3.75931,-5.66151 -5.61656,-8.506121 -4.17584,-6.161224 -8.28706,-12.367634 -12.5037,-18.500336 C 830.25,22.72144 824.5913,19.551394 818.64104,18.736823 Z"
       sodipodi:nodetypes="ccccccccccccccccccccccccccc"
       inkscape:export-xdpi="96"
       inkscape:export-ydpi="96" /><path
       d="m 170.01722,281.19173 h 52.964 v 52.95867 h -52.964 z"
       style="display:inline;opacity:0.995;fill:none;stroke:#231f20;stroke-width:0.377953;stroke-linecap:round;stroke-linejoin:round;stroke-miterlimit:7.5;stroke-dasharray:none;stroke-opacity:1"
       id="path20"
       transform="matrix(0.75000002,0,0,0.75000002,-11.344922,-11.334805)" /><path
       d="m 170.01722,209.19173 h 52.964 v 52.95867 h -52.964 z"
       style="display:inline;opacity:0.995;fill:none;stroke:#231f20;stroke-width:0.377953;stroke-linecap:round;stroke-linejoin:round;stroke-miterlimit:7.5;stroke-dasharray:none;stroke-opacity:1"
       id="path24"
       transform="matrix(0.75000002,0,0,0.75000002,-11.344922,-11.334805)" /><path
       d="M 26.017228,299.19173 H 78.981227 V 352.1504 H 26.017228 Z"
       style="display:inline;opacity:0.995;fill:none;stroke:#231f20;stroke-width:0.377953;stroke-linecap:round;stroke-linejoin:round;stroke-miterlimit:7.5;stroke-dasharray:none;stroke-opacity:1"
       id="path28"
       transform="matrix(0.75000002,0,0,0.75000002,-11.344922,-11.334805)" /><path
       d="M 26.017228,83.191738 H 78.981227 V 136.15574 H 26.017228 Z"
       style="display:inline;opacity:0.995;fill:none;stroke:#231f20;stroke-width:0.377953;stroke-linecap:round;stroke-linejoin:round;stroke-miterlimit:7.5;stroke-dasharray:none;stroke-opacity:1"
       id="path32"
       transform="matrix(0.75000002,0,0,0.75000002,-11.344922,-11.334805)" /><path
       d="m 386.02255,74.233072 h 52.95333 v 52.879998 h -52.95333 z"
       style="display:inline;opacity:0.995;fill:none;stroke:#231f20;stroke-width:0.377953;stroke-linecap:round;stroke-linejoin:round;stroke-miterlimit:7.5;stroke-dasharray:none;stroke-opacity:1"
       id="path36"
       transform="matrix(0.75000002,0,0,0.75000002,-11.344922,-11.334805)" /><path
       d="m 26.017228,155.19174 h 52.963999 v 52.96399 H 26.017228 Z"
       style="display:inline;opacity:0.995;fill:none;stroke:#231f20;stroke-width:0.377953;stroke-linecap:round;stroke-linejoin:round;stroke-miterlimit:7.5;stroke-dasharray:none;stroke-opacity:1"
       id="path40"
       transform="matrix(0.75000002,0,0,0.75000002,-11.344922,-11.334805)" /><path
       d="M 26.017228,227.19173 H 78.981227 V 280.1504 H 26.017228 Z"
       style="display:inline;opacity:0.995;fill:none;stroke:#231f20;stroke-width:0.377953;stroke-linecap:round;stroke-linejoin:round;stroke-miterlimit:7.5;stroke-dasharray:none;stroke-opacity:1"
       id="path44"
       transform="matrix(0.75000002,0,0,0.75000002,-11.344922,-11.334805)" /><path
       d="M 98.017227,83.191738 H 150.98123 V 136.15574 H 98.017227 Z"
       style="display:inline;opacity:0.995;fill:none;stroke:#231f20;stroke-width:0.377953;stroke-linecap:round;stroke-linejoin:round;stroke-miterlimit:7.5;stroke-dasharray:none;stroke-opacity:1"
       id="path48"
       transform="matrix(0.75000002,0,0,0.75000002,-11.344922,-11.334805)" /><path
       d="m 98.017227,155.19174 h 52.964003 v 52.96399 H 98.017227 Z"
       style="display:inline;opacity:0.995;fill:none;stroke:#231f20;stroke-width:0.377953;stroke-linecap:round;stroke-linejoin:round;stroke-miterlimit:7.5;stroke-dasharray:none;stroke-opacity:1"
       id="path52"
       transform="matrix(0.75000002,0,0,0.75000002,-11.344922,-11.334805)" /><path
       d="M 98.017227,227.19173 H 150.98123 V 280.1504 H 98.017227 Z"
       style="display:inline;opacity:0.995;fill:none;stroke:#231f20;stroke-width:0.377953;stroke-linecap:round;stroke-linejoin:round;stroke-miterlimit:7.5;stroke-dasharray:none;stroke-opacity:1"
       id="path56"
       transform="matrix(0.75000002,0,0,0.75000002,-11.344922,-11.334805)" /><path
       d="M 98.017227,299.19173 H 150.98123 V 352.1504 H 98.017227 Z"
       style="display:inline;opacity:0.995;fill:none;stroke:#231f20;stroke-width:0.377953;stroke-linecap:round;stroke-linejoin:round;stroke-miterlimit:7.5;stroke-dasharray:none;stroke-opacity:1"
       id="path60"
       transform="matrix(0.75000002,0,0,0.75000002,-11.344922,-11.334805)" /><path
       d="m 170.01722,65.191738 h 52.964 v 52.964002 h -52.964 z"
       style="display:inline;opacity:0.995;fill:none;stroke:#231f20;stroke-width:0.377953;stroke-linecap:round;stroke-linejoin:round;stroke-miterlimit:7.5;stroke-dasharray:none;stroke-opacity:1"
       id="path64"
       transform="matrix(0.75000002,0,0,0.75000002,-11.344922,-11.334805)" /><path
       d="m 170.01722,137.19174 h 52.964 v 52.964 h -52.964 z"
       style="display:inline;opacity:0.995;fill:none;stroke:#231f20;stroke-width:0.377953;stroke-linecap:round;stroke-linejoin:round;stroke-miterlimit:7.5;stroke-dasharray:none;stroke-opacity:1"
       id="path68"
       transform="matrix(0.75000002,0,0,0.75000002,-11.344922,-11.334805)" /><path
       d="m 242.01722,56.233072 h 52.964 v 52.879998 h -52.964 z"
       style="display:inline;opacity:0.995;fill:none;stroke:#231f20;stroke-width:0.377953;stroke-linecap:round;stroke-linejoin:round;stroke-miterlimit:7.5;stroke-dasharray:none;stroke-opacity:1"
       id="path72"
       transform="matrix(0.75000002,0,0,0.75000002,-11.344922,-11.334805)" /><path
       d="m 242.01722,128.23307 h 52.964 v 52.88 h -52.964 z"
       style="display:inline;opacity:0.995;fill:none;stroke:#231f20;stroke-width:0.377953;stroke-linecap:round;stroke-linejoin:round;stroke-miterlimit:7.5;stroke-dasharray:none;stroke-opacity:1"
       id="path76"
       transform="matrix(0.75000002,0,0,0.75000002,-11.344922,-11.334805)" /><path
       d="m 242.01722,200.23307 h 52.964 v 52.88 h -52.964 z"
       style="display:inline;opacity:0.995;fill:none;stroke:#231f20;stroke-width:0.377953;stroke-linecap:round;stroke-linejoin:round;stroke-miterlimit:7.5;stroke-dasharray:none;stroke-opacity:1"
       id="path80"
       transform="matrix(0.75000002,0,0,0.75000002,-11.344922,-11.334805)" /><path
       d="m 242.01722,272.23307 h 52.964 v 52.88 h -52.964 z"
       style="display:inline;opacity:0.995;fill:none;stroke:#231f20;stroke-width:0.377953;stroke-linecap:round;stroke-linejoin:round;stroke-miterlimit:7.5;stroke-dasharray:none;stroke-opacity:1"
       id="path84"
       transform="matrix(0.75000002,0,0,0.75000002,-11.344922,-11.334805)" /><path
       d="m 314.02255,65.191738 h 52.95334 v 52.964002 h -52.95334 z"
       style="display:inline;opacity:0.995;fill:none;stroke:#231f20;stroke-width:0.377953;stroke-linecap:round;stroke-linejoin:round;stroke-miterlimit:7.5;stroke-dasharray:none;stroke-opacity:1"
       id="path88"
       transform="matrix(0.75000002,0,0,0.75000002,-11.344922,-11.334805)" /><path
       d="m 314.02255,137.19174 h 52.95334 v 52.964 h -52.95334 z"
       style="display:inline;opacity:0.995;fill:none;stroke:#231f20;stroke-width:0.377953;stroke-linecap:round;stroke-linejoin:round;stroke-miterlimit:7.5;stroke-dasharray:none;stroke-opacity:1"
       id="path92"
       transform="matrix(0.75000002,0,0,0.75000002,-11.344922,-11.334805)" /><path
       d="m 314.02255,209.19173 h 52.95334 v 52.95867 h -52.95334 z"
       style="display:inline;opacity:0.995;fill:none;stroke:#231f20;stroke-width:0.377953;stroke-linecap:round;stroke-linejoin:round;stroke-miterlimit:7.5;stroke-dasharray:none;stroke-opacity:1"
       id="path96"
       transform="matrix(0.75000002,0,0,0.75000002,-11.344922,-11.334805)" /><path
       d="m 314.02255,281.19173 h 52.95334 v 52.95867 h -52.95334 z"
       style="display:inline;opacity:0.995;fill:none;stroke:#231f20;stroke-width:0.377953;stroke-linecap:round;stroke-linejoin:round;stroke-miterlimit:7.5;stroke-dasharray:none;stroke-opacity:1"
       id="path100"
       transform="matrix(0.75000002,0,0,0.75000002,-11.344922,-11.334805)" /><path
       d="m 386.02255,146.23307 h 52.95333 v 52.88 h -52.95333 z"
       style="display:inline;opacity:0.995;fill:none;stroke:#231f20;stroke-width:0.377953;stroke-linecap:round;stroke-linejoin:round;stroke-miterlimit:7.5;stroke-dasharray:none;stroke-opacity:1"
       id="path104"
       transform="matrix(0.75000002,0,0,0.75000002,-11.344922,-11.334805)" /><path
       d="m 386.02255,218.23307 h 52.95333 v 52.88 h -52.95333 z"
       style="display:inline;opacity:0.995;fill:none;stroke:#231f20;stroke-width:0.377953;stroke-linecap:round;stroke-linejoin:round;stroke-miterlimit:7.5;stroke-dasharray:none;stroke-opacity:1"
       id="path108"
       transform="matrix(0.75000002,0,0,0.75000002,-11.344922,-11.334805)" /><path
       d="m 386.02255,290.23307 h 52.95333 v 52.87999 h -52.95333 z"
       style="display:inline;opacity:0.995;fill:none;stroke:#231f20;stroke-width:0.377953;stroke-linecap:round;stroke-linejoin:round;stroke-miterlimit:7.5;stroke-dasharray:none;stroke-opacity:1"
       id="path112"
       transform="matrix(0.75000002,0,0,0.75000002,-11.344922,-11.334805)" /><path
       d="m 458.02255,110.23307 h 52.95333 v 52.88 h -52.95333 z"
       style="display:inline;opacity:0.995;fill:none;stroke:#231f20;stroke-width:0.377953;stroke-linecap:round;stroke-linejoin:round;stroke-miterlimit:7.5;stroke-dasharray:none;stroke-opacity:1"
       id="path116"
       transform="matrix(0.75000002,0,0,0.75000002,-11.344922,-11.334805)" /><path
       d="m 458.02255,182.23307 h 52.95333 v 52.88 h -52.95333 z"
       style="display:inline;opacity:0.995;fill:none;stroke:#231f20;stroke-width:0.377953;stroke-linecap:round;stroke-linejoin:round;stroke-miterlimit:7.5;stroke-dasharray:none;stroke-opacity:1"
       id="path120"
       transform="matrix(0.75000002,0,0,0.75000002,-11.344922,-11.334805)" /><path
       d="m 458.02255,254.23307 h 52.95333 v 52.88 h -52.95333 z"
       style="display:inline;opacity:0.995;fill:none;stroke:#231f20;stroke-width:0.377953;stroke-linecap:round;stroke-linejoin:round;stroke-miterlimit:7.5;stroke-dasharray:none;stroke-opacity:1"
       id="path124"
       transform="matrix(0.75000002,0,0,0.75000002,-11.344922,-11.334805)" /><path
       d="m 346.33989,407.35306 26.40133,-45.844 45.83867,26.47867 -26.48,45.844 -45.76,-26.47867"
       style="display:inline;opacity:0.995;fill:none;stroke:#231f20;stroke-width:0.377953;stroke-linecap:round;stroke-linejoin:round;stroke-miterlimit:7.5;stroke-dasharray:none;stroke-opacity:1"
       id="path140"
       transform="matrix(0.75000002,0,0,0.75000002,-11.344922,-11.334805)" /><path
       d="m 92.14256,145.87307 c 0,2.03733 -1.646667,3.688 -3.682667,3.688 -2.035999,0 -3.687999,-1.65067 -3.687999,-3.688 0,-2.036 1.652,-3.68133 3.687999,-3.68133 2.036,0 3.682667,1.64533 3.682667,3.68133 z"
       style="display:inline;opacity:0.995;fill:none;stroke:#231f20;stroke-width:0.377953;stroke-linecap:round;stroke-linejoin:round;stroke-miterlimit:7.5;stroke-dasharray:none;stroke-opacity:1"
       id="path144"
       transform="matrix(0.75000002,0,0,0.75000002,-11.344922,-11.334805)" /><path
       d="m 236.14256,199.6344 c 0,2.036 -1.64667,3.68133 -3.68267,3.68133 -2.036,0 -3.688,-1.64533 -3.688,-3.68133 0,-2.03733 1.652,-3.688 3.688,-3.688 2.036,0 3.68267,1.65067 3.68267,3.688 z"
       style="display:inline;opacity:0.995;fill:none;stroke:#231f20;stroke-width:0.377953;stroke-linecap:round;stroke-linejoin:round;stroke-miterlimit:7.5;stroke-dasharray:none;stroke-opacity:1"
       id="path148"
       transform="matrix(0.75000002,0,0,0.75000002,-11.344922,-11.334805)" /><path
       d="m 212.62656,51.795739 c 0,2.030666 -1.65067,3.681333 -3.688,3.681333 -2.036,0 -3.68134,-1.650667 -3.68134,-3.681333 0,-2.037334 1.64534,-3.688 3.68134,-3.688 2.03733,0 3.688,1.650666 3.688,3.688 z"
       style="display:inline;opacity:0.995;fill:none;stroke:#231f20;stroke-width:0.377953;stroke-linecap:round;stroke-linejoin:round;stroke-miterlimit:7.5;stroke-dasharray:none;stroke-opacity:1"
       id="path152"
       transform="matrix(0.75000002,0,0,0.75000002,-11.344922,-11.334805)" /><path
       d="m 92.14256,362.83173 c 0,2.036 -1.646667,3.69333 -3.682667,3.69333 -2.035999,0 -3.687999,-1.65733 -3.687999,-3.69333 0,-2.04133 1.652,-3.68267 3.687999,-3.68267 2.036,0 3.682667,1.64134 3.682667,3.68267 z"
       style="display:inline;opacity:0.995;fill:none;stroke:#231f20;stroke-width:0.377953;stroke-linecap:round;stroke-linejoin:round;stroke-miterlimit:7.5;stroke-dasharray:none;stroke-opacity:1"
       id="path156"
       transform="matrix(0.75000002,0,0,0.75000002,-11.344922,-11.334805)" /><path
       d="m 238.06389,334.0304 c 0,2.04133 -1.65067,3.692 -3.68667,3.692 -2.032,0 -3.68266,-1.65067 -3.68266,-3.692 0,-2.02667 1.65066,-3.67733 3.68266,-3.67733 2.036,0 3.68667,1.65066 3.68667,3.67733 z"
       style="display:inline;opacity:0.995;fill:none;stroke:#231f20;stroke-width:0.377953;stroke-linecap:round;stroke-linejoin:round;stroke-miterlimit:7.5;stroke-dasharray:none;stroke-opacity:1"
       id="path160"
       transform="matrix(0.75000002,0,0,0.75000002,-11.344922,-11.334805)" /><path
       d="m 429.58522,361.86773 c 0,2.04267 -1.652,3.69867 -3.688,3.69867 -2.03067,0 -3.68267,-1.656 -3.68267,-3.69867 0,-2.02533 1.652,-3.676 3.68267,-3.676 2.036,0 3.688,1.65067 3.688,3.676 z"
       style="display:inline;opacity:0.995;fill:none;stroke:#231f20;stroke-width:0.377953;stroke-linecap:round;stroke-linejoin:round;stroke-miterlimit:7.5;stroke-dasharray:none;stroke-opacity:1"
       id="path164"
       transform="matrix(0.75000002,0,0,0.75000002,-11.344922,-11.334805)" /><path
       d="m 452.14255,136.2744 c 0,2.032 -1.652,3.68267 -3.68267,3.68267 -2.036,0 -3.688,-1.65067 -3.688,-3.68267 0,-2.036 1.652,-3.688 3.688,-3.688 2.03067,0 3.68267,1.652 3.68267,3.688 z"
       style="display:inline;opacity:0.995;fill:none;stroke:#231f20;stroke-width:0.377953;stroke-linecap:round;stroke-linejoin:round;stroke-miterlimit:7.5;stroke-dasharray:none;stroke-opacity:1"
       id="path168"
       transform="matrix(0.75000002,0,0,0.75000002,-11.344922,-11.334805)" /><path
       d="m 537.06388,352.11306 c 0,2.036 -1.64533,3.69334 -3.68266,3.69334 -2.036,0 -3.68667,-1.65734 -3.68667,-3.69334 0,-2.03066 1.65067,-3.68266 3.68667,-3.68266 2.03733,0 3.68266,1.652 3.68266,3.68266 z"
       style="display:inline;opacity:0.995;fill:none;stroke:#231f20;stroke-width:0.377953;stroke-linecap:round;stroke-linejoin:round;stroke-miterlimit:7.5;stroke-dasharray:none;stroke-opacity:1"
       id="path172"
       transform="matrix(0.75000002,0,0,0.75000002,-11.344922,-11.334805)" /><path
       id="path176-3"
       style="display:inline;opacity:0.995;fill:none;stroke:#231f20;stroke-width:0.377953;stroke-linecap:round;stroke-linejoin:round;stroke-miterlimit:7.5;stroke-dasharray:none;stroke-opacity:1"
       d="M 238.37134,7.8839065 C 230.87468,7.9988945 223.41294,9.0768196 216.13838,10.86982 150.47417,25.640218 84.802404,40.378776 19.142899,55.169075 9.082655,57.627755 1.2432397,67.018385 0.55289036,77.341254 c -0.15824799,5.574416 -0.0261733,11.156798 -0.06956,16.734317 0.0064,111.142279 -0.0126667,222.284869 0.009467,333.426959 0.08104,7.71268 4.42953744,15.18484 11.08498764,19.07904 4.018311,2.44091 8.780542,3.40529 13.446636,3.19556 113.705869,0.005 227.411979,-0.0107 341.117709,0.008 3.02358,0.28507 5.98068,1.27068 8.51545,2.95559 44.04989,25.40229 88.08237,50.83566 132.14314,76.21854 6.96462,3.86725 15.96531,3.64985 22.71763,-0.58463 3.86477,-2.28306 6.79059,-5.85644 8.85408,-9.79774 21.46451,-37.09776 42.96618,-74.17459 64.40748,-111.28543 5.15517,-9.513 3.46993,-22.2002 -4.03324,-30.00993 -19.98791,-22.53305 -39.99024,-45.05593 -59.96913,-67.59536 -0.99234,-1.56046 -1.48847,-3.41416 -1.29943,-5.26198 -0.007,-65.60826 0.0196,-131.21685 -0.007,-196.8249 -0.24308,-6.74973 -2.20588,-13.414187 -5.40536,-19.346715 -2.34257,-3.930082 -5.06813,-7.618576 -7.57184,-11.446741 -5.5181,-8.141257 -10.95008,-16.342747 -16.52257,-24.445975 -4.88841,-6.373407 -12.43609,-10.603813 -20.37316,-11.688919 -3.98481,-0.412558 -8.00207,-0.12604 -12.00088,-0.211326 -14.73839,-0.0104 -29.47793,0.02084 -44.21561,-0.01563 -2.445,-0.316037 -4.79968,-1.270525 -6.70043,-2.853005 C 413.70912,29.85058 402.77773,22.05108 391.78012,14.34763 386.09828,10.781751 379.53312,8.6321814 372.86321,7.993782 368.24344,7.7508765 363.6108,7.942587 358.98585,7.8814847 c -40.20485,0.00173 -80.40974,-0.00347 -120.61458,0.0026 z"
       transform="matrix(0.75000002,0,0,0.75000002,-11.344922,-11.334805)" /></g><g
     inkscape:groupmode="layer"
     id="layer7"
     inkscape:label="lastRowAlternate"
     style="display:inline"
     transform="translate(-0.2835204,-7.6776858)"><path
       d="m 270.81722,406.15319 h 52.96 v -52.96013 h -52.96 z"
       style="display:inline;opacity:0.995;fill:none;stroke:#231f20;stroke-width:0.377953;stroke-linecap:round;stroke-linejoin:round;stroke-miterlimit:7.5;stroke-dasharray:none;stroke-opacity:1;filter:url(#filter2152)"
       id="path294"
       sodipodi:nodetypes="ccccc" /><path
       d="m 26.017226,363.79769 h 52.963999 v 52.95867 H 26.017226 Z"
       style="display:inline;opacity:0.995;fill:none;stroke:#231f20;stroke-width:0.377953;stroke-linecap:round;stroke-linejoin:round;stroke-miterlimit:7.5;stroke-dasharray:none;stroke-opacity:1"
       id="path128-3"
       transform="translate(-2.7696704e-7,7.3940368)" /><path
       d="m 98.017225,363.79769 h 52.964005 v 52.95867 H 98.017225 Z"
       style="display:inline;opacity:0.995;fill:none;stroke:#231f20;stroke-width:0.377953;stroke-linecap:round;stroke-linejoin:round;stroke-miterlimit:7.5;stroke-dasharray:none;stroke-opacity:1"
       id="path132-6"
       transform="translate(-2.7696704e-7,7.3940368)" /><path
       d="m 170.01722,345.79769 h 52.964 v 52.95867 h -52.964 z"
       style="display:inline;opacity:0.995;fill:none;stroke:#231f20;stroke-width:0.377953;stroke-linecap:round;stroke-linejoin:round;stroke-miterlimit:7.5;stroke-dasharray:none;stroke-opacity:1"
       id="path136-7"
       transform="translate(-2.7696704e-7,7.3940368)" /></g><g
     inkscape:groupmode="layer"
     id="layer9"
     inkscape:label="lastRow"
     style="display:inline"
     transform="translate(-0.28352068,-0.28364898)"><path
       d="m 170.168,246.84 h 39.723 v 39.66 h -39.723 z"
       style="display:inline;fill:none;stroke:#231f20;stroke-width:0.283465;stroke-linecap:round;stroke-linejoin:round;stroke-miterlimit:7.5;stroke-dasharray:none;stroke-opacity:1"
       id="path16"
       transform="matrix(1.3333333,0,0,1.3333333,15.126562,7.7190362)" /><path
       d="M 26.017228,371.19173 H 78.981227 V 424.1504 H 26.017228 Z"
       style="display:inline;opacity:0.995;fill:none;stroke:#231f20;stroke-width:0.377953;stroke-linecap:round;stroke-linejoin:round;stroke-miterlimit:7.5;stroke-dasharray:none;stroke-opacity:1"
       id="path128"
       transform="translate(2.7696704e-7,-7.3940368)" /><path
       d="M 98.017227,371.19173 H 150.98123 V 424.1504 H 98.017227 Z"
       style="display:inline;opacity:0.995;fill:none;stroke:#231f20;stroke-width:0.377953;stroke-linecap:round;stroke-linejoin:round;stroke-miterlimit:7.5;stroke-dasharray:none;stroke-opacity:1"
       id="path132"
       transform="translate(2.7696704e-7,-7.3940368)" /><path
       d="m 170.01722,353.19173 h 52.964 v 52.95867 h -52.964 z"
       style="display:inline;opacity:0.995;fill:none;stroke:#231f20;stroke-width:0.377953;stroke-linecap:round;stroke-linejoin:round;stroke-miterlimit:7.5;stroke-dasharray:none;stroke-opacity:1"
       id="path136"
       transform="translate(2.7696704e-7,-7.3940368)" /></g><g
     inkscape:groupmode="layer"
     id="layer5"
     inkscape:label="thumbClusterAlternative"
     transform="translate(-0.2835204,-7.6776858)"
     style="display:none"><path
       d="m 434.91341,397.67774 45.82157,26.54105 -26.50443,45.75827 -45.82158,-26.54105 z"
       style="display:inline;opacity:0.995;fill:none;stroke:#231f20;stroke-width:0.377953;stroke-linecap:round;stroke-linejoin:round;stroke-miterlimit:7.5;stroke-dasharray:none;stroke-opacity:1;filter:url(#filter2152)"
       id="path112-8"
       inkscape:transform-center-x="9.6585766"
       inkscape:transform-center-y="-36.149664" /><path
       d="m 471.07988,335.21706 45.81751,26.54805 -26.51142,45.75422 -45.81753,-26.54805 z"
       style="display:inline;opacity:0.995;fill:none;stroke:#231f20;stroke-width:0.377953;stroke-linecap:round;stroke-linejoin:round;stroke-miterlimit:7.5;stroke-dasharray:none;stroke-opacity:1;filter:url(#filter2152)"
       id="path112-8-5"
       inkscape:transform-center-x="-9.6530356"
       inkscape:transform-center-y="36.151137" /><path
       d="m 579.24121,397.71173 -5.792,10.01067 2.412,3.36 -3.78133,6.536 -4.12,-0.41734 -40.19733,69.548 2.39067,3.348 -3.78134,6.532 -4.1,-0.396 -5.68133,9.744 -45.79733,-26.49467 0.90666,-1.572 -6.69866,-3.88 -0.968,-3.61466 14.56666,-25.18267 3.61467,-0.97466 0.98533,0.57333 26.49467,-45.80133 -0.96933,-0.55734 -0.968,-3.61466 14.56666,-25.188 3.61467,-0.97334 6.70933,3.88 0.796,-1.36 z"
       style="display:inline;opacity:0.995;fill:none;stroke:#231f20;stroke-width:0.377953;stroke-linecap:butt;stroke-linejoin:miter;stroke-miterlimit:7.5;stroke-dasharray:none;stroke-opacity:1"
       id="path184-5" /></g><g
     inkscape:groupmode="layer"
     id="layer6"
     inkscape:label="thumbCluster"
     style="display:inline"
     transform="translate(-0.2835204,-7.6776858)"><path
       d="m 376.312,259.949 -4.339,7.508 1.808,2.52 -2.836,4.902 -3.093,-0.313 -30.145,52.161 1.789,2.511 -2.832,4.899 -3.074,-0.297 -4.262,7.308 -34.348,-19.871 0.68,-1.179 -5.023,-2.91 -0.727,-2.711 10.926,-18.887 2.711,-0.731 0.734,0.43 19.875,-34.351 -0.726,-0.418 -0.727,-2.711 10.926,-18.891 2.711,-0.73 5.031,2.91 0.594,-1.02 z"
       style="display:inline;fill:none;stroke:#231f20;stroke-width:0.283465;stroke-linecap:butt;stroke-linejoin:miter;stroke-miterlimit:7.5;stroke-dasharray:none;stroke-opacity:1"
       id="path180"
       transform="matrix(1.3333333,0,0,1.3333333,15.126562,15.113073)" /><path
       d="m 579.24121,397.71173 -5.792,10.01067 2.412,3.36 -3.78133,6.536 -4.12,-0.41734 -40.19733,69.548 2.39067,3.348 -3.78134,6.532 -4.1,-0.396 -5.68133,9.744 -45.79733,-26.49467 0.90666,-1.572 -6.69866,-3.88 -0.968,-3.61466 14.56666,-25.18267 3.61467,-0.97466 0.98533,0.57333 26.49467,-45.80133 -0.96933,-0.55734 -0.968,-3.61466 14.56666,-25.188 3.61467,-0.97334 6.70933,3.88 0.796,-1.36 z"
       style="display:inline;opacity:0.995;fill:none;stroke:#231f20;stroke-width:0.377953;stroke-linecap:butt;stroke-linejoin:miter;stroke-miterlimit:7.5;stroke-dasharray:none;stroke-opacity:1"
       id="path184" /></g><g
     inkscape:groupmode="layer"
     id="layer1"
     inkscape:label="originalSize"
     style="display:inline"
     transform="translate(-0.2835204,-7.6776858)"><path
       d="m 1141.3972,306.07732 c 0,4.16134 2.26,10.09334 5.0213,13.21334 l 60.776,68.47866 c 2.7547,3.12533 3.312,8.60533 1.2294,12.204 l -65.1614,112.54666 c -2.0786,3.59867 -6.7293,4.83867 -10.3333,2.76 l -133.772,-77.17733 c -3.604,-2.07733 -9.952,-3.77066 -14.10933,-3.77066 H 642.19988 c -4.156,0 -7.55733,-3.41067 -7.55733,-7.56267 V 78.675994 c 0,-4.155999 3.31733,-8.306666 7.37466,-9.218666 L 842.78254,24.326662 c 2.032,-0.457333 4.724,-0.869333 7.432,-1.172 h -0.052 V 153.04533 H 996.92387 V 24.082662 c 2.33867,0.776 4.56263,1.817334 6.16663,2.953334 l 33.7134,23.842666 c 3.3906,2.401333 9.568,4.370666 13.7293,4.370666 h 6.5107 v 55.557332 h 45.9573 V 55.249328 h 0.4427 c 4.156,0 9.4586,2.817334 11.7813,6.265334 l 21.9587,32.582665 c 2.3226,3.448 4.224,9.672003 4.224,13.829333 l -0.01,198.23333"
       style="display:inline;fill:none;stroke:#ff0000;stroke-width:0.377953;stroke-linecap:round;stroke-linejoin:round;stroke-miterlimit:7.5;stroke-dasharray:none;stroke-opacity:1"
       id="path220" /><path
       d="m 522.36122,306.5664 c 0,4.156 2.25466,10.104 5.016,13.21333 l 60.77066,68.48933 c 2.76,3.10934 3.312,8.58934 1.22933,12.188 l -65.15733,112.54667 c -2.08266,3.59866 -6.73333,4.83866 -10.33333,2.76 l -133.77066,-77.172 c -3.604,-2.08267 -9.95334,-3.776 -14.10934,-3.776 H 23.157228 c -4.155999,0 -7.557333,-3.4 -7.557333,-7.55733 V 79.165071 c 0,-4.161333 3.318667,-8.306666 7.376,-9.218666 L 223.74656,24.810406 c 4.052,-0.910667 10.776,-1.656 14.932,-1.656 h 131.64133 c 4.156,0 10.33733,1.964 13.728,4.365333 l 33.70933,23.848 c 3.396,2.401333 9.572,4.365333 13.73333,4.365333 h 52.90667 c 4.16133,0 9.464,2.822667 11.78666,6.270666 l 21.95867,32.582666 c 2.32267,3.448 4.224,9.666666 4.224,13.829336 l -0.005,198.30666"
       style="display:inline;fill:none;stroke:#ff0000;stroke-width:0.377953;stroke-linecap:round;stroke-linejoin:round;stroke-miterlimit:7.5;stroke-dasharray:none;stroke-opacity:1"
       id="path176" /></g><g
     inkscape:groupmode="layer"
     id="layer3"
     inkscape:label="sidewallHoles"
     style="display:inline;filter:url(#filter2152)"
     transform="translate(-0.2835204,-7.6776858)"><path
       d="m 630.76627,145.13618 c 0,2.03733 -1.64668,3.688 -3.68267,3.688 -2.03601,0 -3.688,-1.65067 -3.688,-3.688 0,-2.036 1.65199,-3.68133 3.688,-3.68133 2.03599,0 3.68267,1.64533 3.68267,3.68133 z"
       style="display:inline;fill:none;stroke:#231f20;stroke-width:0.377953;stroke-linecap:round;stroke-linejoin:round;stroke-miterlimit:7.5;stroke-dasharray:none;stroke-opacity:1"
       id="path144-9-9"
       inkscape:export-xdpi="96"
       inkscape:export-ydpi="96" /><path
       d="m 831.66854,19.501888 c 0,2.03067 -1.65067,3.68133 -3.688,3.68133 -2.036,0 -3.68134,-1.65066 -3.68134,-3.68133 0,-2.03733 1.64534,-3.688 3.68134,-3.688 2.03733,0 3.688,1.65067 3.688,3.688 z"
       style="display:inline;fill:none;stroke:#231f20;stroke-width:0.377953;stroke-linecap:round;stroke-linejoin:round;stroke-miterlimit:7.5;stroke-dasharray:none;stroke-opacity:1"
       id="path152-3-9"
       inkscape:export-xdpi="96"
       inkscape:export-ydpi="96" /><path
       d="m 1152.6528,135.53751 c 0,2.032 -1.652,3.68267 -3.6826,3.68267 -2.036,0 -3.688,-1.65067 -3.688,-3.68267 0,-2.036 1.652,-3.688 3.688,-3.688 2.0306,0 3.6826,1.652 3.6826,3.688 z"
       style="display:inline;fill:none;stroke:#231f20;stroke-width:0.377953;stroke-linecap:round;stroke-linejoin:round;stroke-miterlimit:7.5;stroke-dasharray:none;stroke-opacity:1"
       id="path168-3-7"
       inkscape:export-xdpi="96"
       inkscape:export-ydpi="96" /><path
       d="m 1189.0416,351.37617 c 0,2.036 -1.6453,3.69334 -3.6827,3.69334 -2.036,0 -3.6866,-1.65734 -3.6866,-3.69334 0,-2.03066 1.6506,-3.68266 3.6866,-3.68266 2.0374,0 3.6827,1.652 3.6827,3.68266 z"
       style="display:inline;fill:none;stroke:#231f20;stroke-width:0.377953;stroke-linecap:round;stroke-linejoin:round;stroke-miterlimit:7.5;stroke-dasharray:none;stroke-opacity:1"
       id="path172-7-9-3"
       inkscape:export-xdpi="96"
       inkscape:export-ydpi="96" /><path
       d="m 1048.6272,472.82567 c 0,2.0427 -1.652,3.6987 -3.688,3.6987 -2.0307,0 -3.6827,-1.656 -3.6827,-3.6987 0,-2.0253 1.652,-3.676 3.6827,-3.676 2.036,0 3.688,1.6507 3.688,3.676 z"
       style="display:inline;fill:none;stroke:#231f20;stroke-width:0.377953;stroke-linecap:round;stroke-linejoin:round;stroke-miterlimit:7.5;stroke-dasharray:none;stroke-opacity:1"
       id="path164-0-2"
       inkscape:export-xdpi="96"
       inkscape:export-ydpi="96" /><path
       d="m 857.10587,441.47347 c 0,2.0413 -1.65067,3.692 -3.68667,3.692 -2.032,0 -3.68267,-1.6507 -3.68267,-3.692 0,-2.0267 1.65067,-3.6774 3.68267,-3.6774 2.036,0 3.68667,1.6507 3.68667,3.6774 z"
       style="display:inline;fill:none;stroke:#231f20;stroke-width:0.377953;stroke-linecap:round;stroke-linejoin:round;stroke-miterlimit:7.5;stroke-dasharray:none;stroke-opacity:1"
       id="path160-2-2"
       inkscape:export-xdpi="96"
       inkscape:export-ydpi="96" /><path
       d="m 630.76885,362.09484 c 0,2.036 -1.64667,3.69333 -3.68267,3.69333 -2.036,0 -3.688,-1.65733 -3.688,-3.69333 0,-2.04133 1.652,-3.68267 3.688,-3.68267 2.036,0 3.68267,1.64134 3.68267,3.68267 z"
       style="display:inline;fill:none;stroke:#231f20;stroke-width:0.377953;stroke-linecap:round;stroke-linejoin:round;stroke-miterlimit:7.5;stroke-dasharray:none;stroke-opacity:1"
       id="path156-1-8"
       inkscape:export-xdpi="96"
       inkscape:export-ydpi="96" /><path
       d="m 388.86325,90.871 c 0,1.524 -1.239,2.762 -2.762,2.762 -1.527,0 -2.766,-1.238 -2.766,-2.762 0,-1.527 1.239,-2.766 2.766,-2.766 1.523,0 2.762,1.239 2.762,2.766 z"
       style="display:inline;opacity:0.995;fill:none;stroke:#231f20;stroke-width:0.283465;stroke-linecap:round;stroke-linejoin:round;stroke-miterlimit:7.5;stroke-dasharray:none;stroke-opacity:1;filter:url(#filter2152)"
       id="path168-3"
       transform="matrix(1.3333333,0,0,1.3333333,15.126562,15.113073)" /><path
       d="m 212.62656,20.23877 c 0,2.030666 -1.65067,3.681333 -3.688,3.681333 -2.036,0 -3.68134,-1.650667 -3.68134,-3.681333 0,-2.037334 1.64534,-3.688 3.68134,-3.688 2.03733,0 3.688,1.650666 3.688,3.688 z"
       style="display:inline;opacity:0.995;fill:none;stroke:#231f20;stroke-width:0.377953;stroke-linecap:round;stroke-linejoin:round;stroke-miterlimit:7.5;stroke-dasharray:none;stroke-opacity:1;filter:url(#filter2152)"
       id="path152-3" /><path
       d="m -2.5517051,98.07 c 0,1.528 -1.23501,2.766 -2.762,2.766 -1.52701,0 -2.766,-1.238 -2.766,-2.766 0,-1.527 1.23899,-2.761 2.766,-2.761 1.52699,0 2.762,1.234 2.762,2.761 z"
       style="display:inline;opacity:0.995;fill:none;stroke:#231f20;stroke-width:0.283465;stroke-linecap:round;stroke-linejoin:round;stroke-miterlimit:7.5;stroke-dasharray:none;stroke-opacity:1;filter:url(#filter2152)"
       id="path144-9"
       transform="matrix(1.3333333,0,0,1.3333333,15.126562,15.113073)" /><path
       d="m -2.5497665,260.789 c 0,1.527 -1.235,2.77 -2.762,2.77 -1.527,0 -2.766,-1.243 -2.766,-2.77 0,-1.531 1.239,-2.762 2.766,-2.762 1.527,0 2.762,1.231 2.762,2.762 z"
       style="display:inline;opacity:0.995;fill:none;stroke:#231f20;stroke-width:0.283465;stroke-linecap:round;stroke-linejoin:round;stroke-miterlimit:7.5;stroke-dasharray:none;stroke-opacity:1;filter:url(#filter2152)"
       id="path156-1"
       transform="matrix(1.3333333,0,0,1.3333333,15.126562,15.113073)" /><path
       d="m 167.203,320.32296 c 0,1.531 -1.238,2.769 -2.765,2.769 -1.524,0 -2.762,-1.238 -2.762,-2.769 0,-1.52 1.238,-2.758 2.762,-2.758 1.527,0 2.765,1.238 2.765,2.758 z"
       style="display:inline;opacity:0.995;fill:none;stroke:#231f20;stroke-width:0.283465;stroke-linecap:round;stroke-linejoin:round;stroke-miterlimit:7.5;stroke-dasharray:none;stroke-opacity:1;filter:url(#filter2152)"
       id="path160-2"
       transform="matrix(1.3333333,0,0,1.3333333,15.126562,15.113073)" /><path
       d="m 310.844,343.83715 c 0,1.532 -1.239,2.774 -2.766,2.774 -1.523,0 -2.762,-1.242 -2.762,-2.774 0,-1.519 1.239,-2.757 2.762,-2.757 1.527,0 2.766,1.238 2.766,2.757 z"
       style="display:inline;opacity:0.995;fill:none;stroke:#231f20;stroke-width:0.283465;stroke-linecap:round;stroke-linejoin:round;stroke-miterlimit:7.5;stroke-dasharray:none;stroke-opacity:1;filter:url(#filter2152)"
       id="path164-0"
       transform="matrix(1.3333333,0,0,1.3333333,15.126562,15.113073)" /><path
       d="m 416.15481,252.75 c 0,1.527 -1.234,2.77 -2.762,2.77 -1.527,0 -2.765,-1.243 -2.765,-2.77 0,-1.523 1.238,-2.762 2.765,-2.762 1.528,0 2.762,1.239 2.762,2.762 z"
       style="display:inline;opacity:0.995;fill:none;stroke:#231f20;stroke-width:0.283465;stroke-linecap:round;stroke-linejoin:round;stroke-miterlimit:7.5;stroke-dasharray:none;stroke-opacity:1;filter:url(#filter2152)"
       id="path172-7-9"
       transform="matrix(1.3333333,0,0,1.3333333,15.126562,15.113073)" /></g><g
     inkscape:groupmode="layer"
     id="layer4"
     inkscape:label="holeHelper"
     style="display:none"
     transform="translate(-0.2835204,-7.6776858)"><path
       id="path176-2"
       style="display:inline;fill:none;stroke:#00ff00;stroke-width:0.377953;stroke-linecap:round;stroke-linejoin:round;stroke-miterlimit:7.5;stroke-dasharray:none;stroke-opacity:1"
       d="m 237.7793,15.449219 c -6.36981,0.18749 -12.72143,1.033045 -18.91105,2.553905 C 152.8659,32.84733 86.85837,47.669517 20.859259,62.527484 13.345868,64.439826 7.7100292,71.951041 8.0410156,79.709766 c 0.00298,115.893724 -0.00595,231.787564 0.00446,347.681214 0.04423,5.71228 3.6674404,11.17808 8.8884364,13.48108 2.495141,1.18631 5.293909,1.45353 8.022333,1.34669 113.715325,0.003 227.430815,-0.007 341.146035,0.005 3.3137,0.16365 6.58953,1.0497 9.60045,2.42829 6.15629,3.46976 12.24974,7.05489 18.3818,10.56912 38.84131,22.39926 77.66945,44.82192 116.51899,67.20654 5.01929,2.72058 11.54929,2.20337 16.0955,-1.2418 2.17344,-1.55209 3.72646,-3.77637 4.96261,-6.10893 21.50675,-37.16288 43.0389,-74.3114 64.52978,-111.48325 3.53417,-6.74157 2.31831,-15.68415 -2.98601,-21.17124 -20.11064,-22.67788 -40.2477,-45.33308 -60.34184,-68.02513 -1.61806,-2.23017 -2.62843,-4.91873 -2.92997,-7.65519 -0.0311,-27.91599 -0.003,-55.83288 -0.0112,-83.74922 -0.006,-38.41788 0.0166,-76.83613 -0.007,-115.25378 -0.19695,-5.11688 -1.65188,-10.149964 -3.88731,-14.739359 -1.52267,-2.982637 -3.61154,-5.624026 -5.41799,-8.433642 -6.21816,-9.200959 -12.38985,-18.4344 -18.63711,-27.615017 -3.41732,-4.453123 -8.58182,-7.457321 -14.05274,-8.578388 -3.03755,-0.601982 -6.15016,-0.26859 -9.22344,-0.355206 -15.87596,-0.0104 -31.75252,0.02081 -47.62812,-0.01563 -3.04954,-0.287977 -6.06292,-1.239301 -8.70039,-2.801564 -11.55908,-8.131803 -23.06314,-16.343642 -34.6311,-24.462559 -4.30139,-2.722718 -9.24761,-4.373745 -14.27488,-5.082899 -3.29809,-0.396784 -6.62884,-0.14385 -9.94168,-0.215478 -41.91365,0.0065 -83.82746,-0.01302 -125.74101,0.0098 z" /><path
       style="display:inline;fill:none;stroke:#00ff00;stroke-width:0.377953;stroke-linecap:butt;stroke-linejoin:miter;stroke-miterlimit:7.5;stroke-dasharray:none;stroke-opacity:1"
       d="m 533.37922,352.1184 h 32.93574"
       id="path1763" /><path
       style="display:inline;fill:none;stroke:#00ff00;stroke-width:0.377953;stroke-linecap:butt;stroke-linejoin:miter;stroke-miterlimit:7.5;stroke-dasharray:none;stroke-opacity:1"
       d="m 448.45722,136.27174 h 81.46833"
       id="path1765" /><path
       style="display:inline;fill:none;stroke:#00ff00;stroke-width:0.377953;stroke-linecap:butt;stroke-linejoin:miter;stroke-miterlimit:7.5;stroke-dasharray:none;stroke-opacity:1"
       d="M 208.94189,51.792405 V 20.235436"
       id="path1767" /><path
       style="display:inline;fill:none;stroke:#00ff00;stroke-width:0.377953;stroke-linecap:butt;stroke-linejoin:miter;stroke-miterlimit:7.5;stroke-dasharray:none;stroke-opacity:1"
       d="M 88.457227,145.8764 H 8.0389554"
       id="path1769" /><path
       style="display:inline;fill:none;stroke:#00ff00;stroke-width:0.377953;stroke-linecap:butt;stroke-linejoin:miter;stroke-miterlimit:7.5;stroke-dasharray:none;stroke-opacity:1"
       d="M 88.457227,362.83706 H 8.0415402"
       id="path1771" /><path
       style="display:inline;fill:none;stroke:#00ff00;stroke-width:0.377953;stroke-linecap:butt;stroke-linejoin:miter;stroke-miterlimit:7.5;stroke-dasharray:none;stroke-opacity:1"
       d="M 234.37922,442.21768 V 334.03773"
       id="path1773" /><path
       style="display:inline;fill:none;stroke:#00ff00;stroke-width:0.377953;stroke-linecap:butt;stroke-linejoin:miter;stroke-miterlimit:7.5;stroke-dasharray:none;stroke-opacity:1"
       d="M 425.89989,473.57393 V 361.87906"
       id="path1775" /><path
       id="path176-2-6"
       style="display:inline;fill:none;stroke:#00ff00;stroke-width:0.377953;stroke-linecap:round;stroke-linejoin:round;stroke-miterlimit:7.5;stroke-dasharray:none;stroke-opacity:1"
       d="m 856.82128,7.3918885 c -6.36981,0.18749 -12.72143,1.03304 -18.91105,2.5539 C 771.90788,24.789999 705.90035,39.612189 639.90124,54.470149 c -7.51339,1.91235 -13.14923,9.42356 -12.81824,17.18229 0.003,115.893721 -0.006,231.787561 0.004,347.681191 0.0442,5.7123 3.66744,11.1781 8.88843,13.4811 2.49514,1.1863 5.29391,1.4535 8.02233,1.3467 113.71533,0 227.43082,-0.01 341.14604,0.01 3.3137,0.1636 6.58952,1.0497 9.60042,2.4283 6.15628,3.4697 12.24978,7.0549 18.38178,10.5691 38.8413,22.3993 77.6695,44.8219 116.519,67.2065 5.0193,2.7206 11.5493,2.2034 16.0955,-1.2418 2.1734,-1.5521 3.7264,-3.7763 4.9626,-6.1089 21.5067,-37.1629 43.0389,-74.3114 64.5298,-111.4832 3.5341,-6.74161 2.3183,-15.68419 -2.986,-21.17128 -20.1107,-22.67788 -40.2477,-45.33308 -60.3419,-68.02513 -1.618,-2.23017 -2.6284,-4.91873 -2.9299,-7.65519 -0.031,-27.91599 0,-55.83288 -0.011,-83.74922 -0.01,-38.41788 0.017,-76.83613 -0.01,-115.253781 -0.197,-5.11688 -1.6519,-10.14996 -3.8874,-14.73936 -1.5226,-2.98264 -3.6115,-5.62403 -5.4179,-8.43364 -6.2182,-9.20096 -12.3899,-18.4344 -18.6372,-27.61502 -3.4173,-4.45312 -8.5818,-7.45732 -14.0527,-8.57839 -3.0375,-0.60198 -6.1502,-0.26859 -9.2234,-0.3552 -15.876,-0.0104 -31.7525,0.0208 -47.6281,-0.0156 -3.0496,-0.28798 -6.0629,-1.2393 -8.7004,-2.80157 -11.5591,-8.1318 -23.0632,-16.34364 -34.6311,-24.46256 -4.3014,-2.7227105 -9.24758,-4.3737405 -14.27488,-5.0828905 -3.29808,-0.39679 -6.62883,-0.14385 -9.94167,-0.21548 -41.91365,0.006 -83.82746,-0.013 -125.74101,0.01 z" /><path
       style="display:inline;fill:none;stroke:#00ff00;stroke-width:0.377953;stroke-linecap:butt;stroke-linejoin:miter;stroke-miterlimit:7.5;stroke-dasharray:none;stroke-opacity:1"
       d="m 1152.4212,344.06107 h 32.9357"
       id="path1763-1" /><path
       style="display:inline;fill:none;stroke:#00ff00;stroke-width:0.377953;stroke-linecap:butt;stroke-linejoin:miter;stroke-miterlimit:7.5;stroke-dasharray:none;stroke-opacity:1"
       d="m 1067.4992,128.21441 h 81.4683"
       id="path1765-2" /><path
       style="display:inline;fill:none;stroke:#00ff00;stroke-width:0.377953;stroke-linecap:butt;stroke-linejoin:miter;stroke-miterlimit:7.5;stroke-dasharray:none;stroke-opacity:1"
       d="M 827.98387,43.735069 V 12.178109"
       id="path1767-9" /><path
       style="display:inline;fill:none;stroke:#00ff00;stroke-width:0.377953;stroke-linecap:butt;stroke-linejoin:miter;stroke-miterlimit:7.5;stroke-dasharray:none;stroke-opacity:1"
       d="M 707.49921,137.81907 H 627.08094"
       id="path1769-3" /><path
       style="display:inline;fill:none;stroke:#00ff00;stroke-width:0.377953;stroke-linecap:butt;stroke-linejoin:miter;stroke-miterlimit:7.5;stroke-dasharray:none;stroke-opacity:1"
       d="M 707.49921,354.77973 H 627.08352"
       id="path1771-1" /><path
       style="display:inline;fill:none;stroke:#00ff00;stroke-width:0.377953;stroke-linecap:butt;stroke-linejoin:miter;stroke-miterlimit:7.5;stroke-dasharray:none;stroke-opacity:1"
       d="M 853.4212,434.16033 V 325.9804"
       id="path1773-9" /><path
       style="display:inline;fill:none;stroke:#00ff00;stroke-width:0.377953;stroke-linecap:butt;stroke-linejoin:miter;stroke-miterlimit:7.5;stroke-dasharray:none;stroke-opacity:1"
       d="M 1044.9418,465.51663 V 353.82173"
       id="path1775-4" /></g><g
     inkscape:groupmode="layer"
     id="layer2"
     inkscape:label="default"
     style="display:none"
     transform="translate(-0.28352068,-0.28364898)" /></svg>
