<?xml version="1.0" encoding="UTF-8" standalone="no"?>
<svg
   xmlns:dc="http://purl.org/dc/elements/1.1/"
   xmlns:cc="http://creativecommons.org/ns#"
   xmlns:rdf="http://www.w3.org/1999/02/22-rdf-syntax-ns#"
   xmlns:svg="http://www.w3.org/2000/svg"
   xmlns="http://www.w3.org/2000/svg"
   xmlns:sodipodi="http://sodipodi.sourceforge.net/DTD/sodipodi-0.dtd"
   xmlns:inkscape="http://www.inkscape.org/namespaces/inkscape"
   version="1.1"
   id="svg2"
   xml:space="preserve"
   width="605.27435"
   height="523.40784"
   viewBox="0 0 605.2744 523.40785"
   sodipodi:docname="sidewallSketch.svg"
   inkscape:version="1.0 (4035a4fb49, 2020-05-01)"><metadata
     id="metadata8"><rdf:RDF><cc:Work
         rdf:about=""><dc:format>image/svg+xml</dc:format><dc:type
           rdf:resource="http://purl.org/dc/dcmitype/StillImage" /><dc:title /></cc:Work></rdf:RDF></metadata><defs
     id="defs6"><filter
       inkscape:collect="always"
       style="color-interpolation-filters:sRGB"
       id="filter2152"
       x="-1.3398613e-05"
       width="1.0000268"
       y="-3.3861488e-05"
       height="1.0000677"><feGaussianBlur
         inkscape:collect="always"
         stdDeviation="0.0066138232"
         id="feGaussianBlur2154" /></filter><filter
       height="1.0000677"
       y="-3.3861488e-05"
       width="1.0000268"
       x="-1.3398613e-05"
       id="filter2152-0"
       style="color-interpolation-filters:sRGB"
       inkscape:collect="always"><feGaussianBlur
         id="feGaussianBlur2154-2"
         stdDeviation="0.0066138232"
         inkscape:collect="always" /></filter></defs><sodipodi:namedview
     pagecolor="#ffffff"
     bordercolor="#666666"
     borderopacity="1"
     objecttolerance="10"
     gridtolerance="10"
     guidetolerance="10"
     inkscape:pageopacity="0"
     inkscape:pageshadow="2"
     inkscape:window-width="1920"
     inkscape:window-height="1137"
     id="namedview4"
     showgrid="false"
     inkscape:zoom="0.29895983"
     inkscape:cx="297.10285"
     inkscape:cy="1337.5639"
     inkscape:window-x="1016"
     inkscape:window-y="-8"
     inkscape:window-maximized="1"
     inkscape:current-layer="layer8"
     inkscape:object-paths="true"
     inkscape:snap-smooth-nodes="false"
     inkscape:snap-object-midpoints="false"
     inkscape:snap-center="true"
     inkscape:snap-global="true"
     inkscape:snap-nodes="true"
     inkscape:object-nodes="true"
     inkscape:snap-others="true"
     inkscape:snap-intersection-paths="true"
     inkscape:document-rotation="0" /><g
     id="g10"
     inkscape:groupmode="layer"
     inkscape:label="keyboardPlates"
     transform="matrix(1.3333333,0,0,1.3333333,701.83012,30.251675)"
     style="display:inline" /><g
     inkscape:groupmode="layer"
     id="layer7"
     inkscape:label="lastRowAlternate"
     style="display:inline"
     transform="translate(686.70356,15.138602)" /><g
     inkscape:groupmode="layer"
     id="layer9"
     inkscape:label="lastRow"
     style="display:inline"
     transform="translate(686.70356,22.532639)" /><g
     inkscape:groupmode="layer"
     id="layer5"
     inkscape:label="thumbClusterAlternative"
     transform="translate(686.70356,15.138602)"
     style="display:inline" /><g
     inkscape:groupmode="layer"
     id="layer6"
     inkscape:label="thumbCluster"
     style="display:inline"
     transform="translate(686.70356,15.138602)" /><g
     inkscape:groupmode="layer"
     id="layer1"
     inkscape:label="originalSize"
     style="display:inline"
     transform="translate(686.70356,15.138602)" /><g
     inkscape:groupmode="layer"
     id="layer3"
     inkscape:label="sidewallHoles"
     style="display:inline;filter:url(#filter2152)"
     transform="translate(686.70356,15.138602)" /><g
     style="display:inline"
     inkscape:groupmode="layer"
     id="layer8"
     inkscape:label="sidewallSketch"
     transform="translate(686.98708,22.816288)"><path
       transform="translate(-0.2835204,-7.6776858)"
       sodipodi:nodetypes="cccccccccccccccccccccccc"
       d="m -448.8169,-15.12088 c -7.49666,0.11499 -14.9584,1.19291 -22.23296,2.98591 -65.66421,14.7704002 -131.33598,29.50896 -196.99549,44.29926 -10.06024,2.45868 -17.89965,11.84931 -18.59,22.17218 l -0.0601,350.16128 c 2.10324,14.22951 11.1201,22.74724 24.53163,22.2746 l 341.11771,0.008 c 3.02358,0.28507 5.98068,1.27068 8.51545,2.95559 l 132.14314,76.21854 c 13.67203,5.16502 25.18182,1.58388 31.57171,-10.38237 l 64.407479,-111.28543 c 5.15517,-9.513 3.46993,-22.2002 -4.03324,-30.00993 L -148.4107,286.68139 c -0.99234,-1.56046 -1.48847,-3.41416 -1.29943,-5.26198 l -0.007,-196.824903 c -0.24308,-6.74973 -2.20588,-13.414191 -5.40536,-19.346717 L -179.2169,29.35507 c -4.88841,-6.37341 -12.43609,-10.60381 -20.37316,-11.68892 l -56.21649,-0.22695 c -2.445,-0.31604 -4.79968,-1.27053 -6.70043,-2.85301 -10.97214,-7.7403998 -21.90353,-15.53989981 -32.90114,-23.2433498 -5.68184,-3.5658802 -12.247,-5.7154502 -18.91691,-6.3538502 l -134.49194,-0.10969 z"
       style="display:inline;opacity:0.995;fill:none;stroke:#000000;stroke-width:0.377953;stroke-linecap:round;stroke-linejoin:round;stroke-miterlimit:7.5;stroke-dasharray:none;stroke-opacity:1;filter:url(#filter2152)"
       id="path176-3-9" /><path
       transform="translate(-0.2835204,-7.6776858)"
       id="path176-5"
       style="display:inline;fill:none;stroke:#000000;stroke-width:0.377953;stroke-linecap:round;stroke-linejoin:round;stroke-miterlimit:7.5;stroke-dasharray:none;stroke-opacity:1;filter:url(#filter2152)"
       d="m -164.82702,283.56162 c 0,4.156 2.25466,10.104 5.016,13.21333 l 60.770659,68.48933 c 2.76,3.10934 3.312,8.58934 1.22933,12.188 l -65.157329,112.54667 c -2.08266,3.59866 -6.73333,4.83866 -10.33333,2.76 l -133.77066,-77.172 c -3.604,-2.08267 -9.95334,-3.776 -14.10934,-3.776 h -342.84933 c -4.15599,0 -7.55733,-3.4 -7.55733,-7.55733 V 56.16028 c 0,-4.16133 3.31867,-8.30666 7.376,-9.21866 L -463.44168,1.8056202 c 4.052,-0.91067001 10.776,-1.65600001 14.932,-1.65600001 h 131.64133 c 4.156,0 10.33733,1.96400001 13.728,4.36533001 l 33.70933,23.8479998 c 3.396,2.40133 9.572,4.36533 13.73333,4.36533 h 52.90667 c 4.16133,0 9.464,2.82267 11.78666,6.27067 l 21.95867,32.582667 c 2.32267,3.448 4.224,9.66667 4.224,13.82934 l -0.005,198.306663" /><path
       transform="matrix(1.3333333,0,0,1.3333333,-672.3452,-15.569406)"
       id="path168-3-1"
       style="display:inline;opacity:0.995;fill:none;stroke:#000000;stroke-width:0.283465;stroke-linecap:round;stroke-linejoin:round;stroke-miterlimit:7.5;stroke-dasharray:none;stroke-opacity:1;filter:url(#filter2152-0)"
       d="m 388.86325,90.871 c 0,1.524 -1.239,2.762 -2.762,2.762 -1.527,0 -2.766,-1.238 -2.766,-2.762 0,-1.527 1.239,-2.766 2.766,-2.766 1.523,0 2.762,1.239 2.762,2.766 z" /><path
       transform="translate(-0.2835204,-7.6776858)"
       id="path152-3-7"
       style="display:inline;opacity:0.995;fill:none;stroke:#000000;stroke-width:0.377953;stroke-linecap:round;stroke-linejoin:round;stroke-miterlimit:7.5;stroke-dasharray:none;stroke-opacity:1;filter:url(#filter2152-0)"
       d="m -474.56168,-2.7660198 c 0,2.03066999 -1.65067,3.68133999 -3.688,3.68133999 -2.036,0 -3.68134,-1.65067 -3.68134,-3.68133999 0,-2.03733 1.64534,-3.688 3.68134,-3.688 2.03733,0 3.688,1.65067 3.688,3.688 z" /><path
       transform="matrix(1.3333333,0,0,1.3333333,-672.3452,-15.569406)"
       id="path144-9-2"
       style="display:inline;opacity:0.995;fill:none;stroke:#000000;stroke-width:0.283465;stroke-linecap:round;stroke-linejoin:round;stroke-miterlimit:7.5;stroke-dasharray:none;stroke-opacity:1;filter:url(#filter2152-0)"
       d="m -2.5517051,98.07 c 0,1.528 -1.23501,2.766 -2.762,2.766 -1.52701,0 -2.766,-1.238 -2.766,-2.766 0,-1.527 1.23899,-2.761 2.766,-2.761 1.52699,0 2.762,1.234 2.762,2.761 z" /><path
       transform="matrix(1.3333333,0,0,1.3333333,-672.3452,-15.569406)"
       id="path156-1-9"
       style="display:inline;opacity:0.995;fill:none;stroke:#000000;stroke-width:0.283465;stroke-linecap:round;stroke-linejoin:round;stroke-miterlimit:7.5;stroke-dasharray:none;stroke-opacity:1;filter:url(#filter2152-0)"
       d="m -2.5497665,260.789 c 0,1.527 -1.235,2.77 -2.762,2.77 -1.527,0 -2.766,-1.243 -2.766,-2.77 0,-1.531 1.239,-2.762 2.766,-2.762 1.527,0 2.762,1.231 2.762,2.762 z" /><path
       transform="matrix(1.3333333,0,0,1.3333333,-672.3452,-15.569406)"
       id="path160-2-4"
       style="display:inline;opacity:0.995;fill:none;stroke:#000000;stroke-width:0.283465;stroke-linecap:round;stroke-linejoin:round;stroke-miterlimit:7.5;stroke-dasharray:none;stroke-opacity:1;filter:url(#filter2152-0)"
       d="m 167.203,320.32296 c 0,1.531 -1.238,2.769 -2.765,2.769 -1.524,0 -2.762,-1.238 -2.762,-2.769 0,-1.52 1.238,-2.758 2.762,-2.758 1.527,0 2.765,1.238 2.765,2.758 z" /><path
       transform="matrix(1.3333333,0,0,1.3333333,-672.3452,-15.569406)"
       id="path164-0-9"
       style="display:inline;opacity:0.995;fill:none;stroke:#000000;stroke-width:0.283465;stroke-linecap:round;stroke-linejoin:round;stroke-miterlimit:7.5;stroke-dasharray:none;stroke-opacity:1;filter:url(#filter2152-0)"
       d="m 310.844,343.83715 c 0,1.532 -1.239,2.774 -2.766,2.774 -1.523,0 -2.762,-1.242 -2.762,-2.774 0,-1.519 1.239,-2.757 2.762,-2.757 1.527,0 2.766,1.238 2.766,2.757 z" /><path
       transform="matrix(1.3333333,0,0,1.3333333,-672.3452,-15.569406)"
       id="path172-7-9-31"
       style="display:inline;opacity:0.995;fill:none;stroke:#000000;stroke-width:0.283465;stroke-linecap:round;stroke-linejoin:round;stroke-miterlimit:7.5;stroke-dasharray:none;stroke-opacity:1;filter:url(#filter2152-0)"
       d="m 416.15481,252.75 c 0,1.527 -1.234,2.77 -2.762,2.77 -1.527,0 -2.765,-1.243 -2.765,-2.77 0,-1.523 1.238,-2.762 2.765,-2.762 1.528,0 2.762,1.239 2.762,2.762 z" /></g><g
     inkscape:groupmode="layer"
     id="layer4"
     inkscape:label="holeHelper"
     style="display:inline"
     transform="translate(686.70356,15.138602)" /><g
     inkscape:groupmode="layer"
     id="layer2"
     inkscape:label="default"
     style="display:inline"
     transform="translate(686.70356,22.532639)" /></svg>
